
<svg width="22px" height="18px" viewBox="0 0 22 18" version="1.1" xmlns="http://www.w3.org/2000/svg" xmlns:xlink="http://www.w3.org/1999/xlink">
    <!-- Generator: Sketch 48.1 (47250) - http://www.bohemiancoding.com/sketch -->
    <desc>Created with Sketch.</desc>
    <defs></defs>
    <g id="Page-1" stroke="none" stroke-width="1" fill="none" fill-rule="evenodd">
        <g id="Artboard" transform="translate(-575.000000, -451.000000)" fill="#FFFFFF">
            <path d="M589.767864,461.963329 L577.492239,461.963329 C576.407922,461.963329 575.528909,461.084317 575.528909,460 C575.528909,458.915683 576.407922,458.036671 577.492239,458.036671 L589.767864,458.036671 L586.607933,454.876739 C585.841205,454.110012 585.841205,452.8669 586.607933,452.100172 C587.374661,451.333444 588.617773,451.333444 589.384501,452.100172 L595.863157,458.578829 C595.868666,458.584338 595.874135,458.589871 595.879565,458.595429 C596.24453,458.951932 596.471091,459.449508 596.471091,460 C596.471091,460.550492 596.24453,461.048068 595.879565,461.404571 C595.874135,461.410129 595.868666,461.415662 595.863157,461.421171 L589.384501,467.899828 C588.617773,468.666556 587.374661,468.666556 586.607933,467.899828 C585.841205,467.1331 585.841205,465.889988 586.607933,465.123261 L589.767864,461.963329 Z" id="Combined-Shape"></path>
        </g>
    </g>
</svg>