<svg width="16px" height="14px" viewBox="0 0 16 14" version="1.1" xmlns="http://www.w3.org/2000/svg" xmlns:xlink="http://www.w3.org/1999/xlink">
    <!-- Generator: Sketch 48.1 (47250) - http://www.bohemiancoding.com/sketch -->
    <desc>Created with Sketch.</desc>
    <defs></defs>
    <g id="Page-1" stroke="none" stroke-width="1" fill="none" fill-rule="evenodd">
        <g id="Artboard" transform="translate(-784.000000, -233.000000)" fill="#F7B84F">
            <path d="M795,245 L791,245 C790.447715,245 790,244.552285 790,244 L790,241 C790,240.447715 790.447715,240 791,240 L799,240 C799.552285,240 800,240.447715 800,241 L800,244 C800,244.552285 799.552285,245 799,245 L798,245 L796.5,247 L795,245 Z M786,238 L785,238 C784.447715,238 784,237.552285 784,237 L784,234 C784,233.447715 784.447715,233 785,233 L793,233 C793.552285,233 794,233.447715 794,234 L794,237 C794,237.552285 793.552285,238 793,238 L789,238 L787.5,240 L786,238 Z" id="Combined-Shape"></path>
        </g>
    </g>
</svg>